<mxfile host="app.diagrams.net" modified="2022-11-02T06:47:14.728Z" agent="5.0 (X11; Linux x86_64) AppleWebKit/537.36 (KHTML, like Gecko) Chrome/106.0.0.0 Safari/537.36" etag="2SvWbcYXcLs1ZIrbhml0" version="20.5.1" type="github">
  <diagram id="pLf0CJlX_Dpnt45Lz_va" name="第 1 页">
    <mxGraphModel dx="1422" dy="748" grid="1" gridSize="10" guides="1" tooltips="1" connect="1" arrows="1" fold="1" page="1" pageScale="1" pageWidth="827" pageHeight="1169" math="0" shadow="0">
      <root>
        <mxCell id="0" />
        <mxCell id="1" parent="0" />
        <mxCell id="tfZsshV87r6EDiGM7KeE-1" style="edgeStyle=orthogonalEdgeStyle;rounded=0;orthogonalLoop=1;jettySize=auto;html=1;exitX=1;exitY=0.5;exitDx=0;exitDy=0;" edge="1" parent="1" source="tfZsshV87r6EDiGM7KeE-2" target="tfZsshV87r6EDiGM7KeE-4">
          <mxGeometry relative="1" as="geometry" />
        </mxCell>
        <mxCell id="tfZsshV87r6EDiGM7KeE-2" value="发送后端请求" style="rounded=0;whiteSpace=wrap;html=1;" vertex="1" parent="1">
          <mxGeometry x="224" y="120" width="120" height="60" as="geometry" />
        </mxCell>
        <mxCell id="tfZsshV87r6EDiGM7KeE-3" style="edgeStyle=orthogonalEdgeStyle;rounded=0;orthogonalLoop=1;jettySize=auto;html=1;exitX=0.5;exitY=1;exitDx=0;exitDy=0;entryX=0.5;entryY=0;entryDx=0;entryDy=0;" edge="1" parent="1" source="tfZsshV87r6EDiGM7KeE-4" target="tfZsshV87r6EDiGM7KeE-11">
          <mxGeometry relative="1" as="geometry" />
        </mxCell>
        <mxCell id="tfZsshV87r6EDiGM7KeE-4" value="接收到请求" style="rounded=0;whiteSpace=wrap;html=1;" vertex="1" parent="1">
          <mxGeometry x="484" y="120" width="120" height="60" as="geometry" />
        </mxCell>
        <mxCell id="tfZsshV87r6EDiGM7KeE-5" style="edgeStyle=orthogonalEdgeStyle;rounded=0;orthogonalLoop=1;jettySize=auto;html=1;exitX=0;exitY=0.5;exitDx=0;exitDy=0;entryX=1;entryY=0.5;entryDx=0;entryDy=0;" edge="1" parent="1" source="tfZsshV87r6EDiGM7KeE-9" target="tfZsshV87r6EDiGM7KeE-13">
          <mxGeometry relative="1" as="geometry" />
        </mxCell>
        <mxCell id="tfZsshV87r6EDiGM7KeE-6" value="N" style="edgeLabel;html=1;align=center;verticalAlign=middle;resizable=0;points=[];" vertex="1" connectable="0" parent="tfZsshV87r6EDiGM7KeE-5">
          <mxGeometry x="-0.6503" y="1" relative="1" as="geometry">
            <mxPoint as="offset" />
          </mxGeometry>
        </mxCell>
        <mxCell id="tfZsshV87r6EDiGM7KeE-7" style="edgeStyle=orthogonalEdgeStyle;rounded=0;orthogonalLoop=1;jettySize=auto;html=1;exitX=0.5;exitY=1;exitDx=0;exitDy=0;entryX=1;entryY=0.5;entryDx=0;entryDy=0;" edge="1" parent="1" source="tfZsshV87r6EDiGM7KeE-9" target="tfZsshV87r6EDiGM7KeE-15">
          <mxGeometry relative="1" as="geometry" />
        </mxCell>
        <mxCell id="tfZsshV87r6EDiGM7KeE-8" value="Y" style="edgeLabel;html=1;align=center;verticalAlign=middle;resizable=0;points=[];" vertex="1" connectable="0" parent="tfZsshV87r6EDiGM7KeE-7">
          <mxGeometry x="-0.5793" y="-1" relative="1" as="geometry">
            <mxPoint as="offset" />
          </mxGeometry>
        </mxCell>
        <mxCell id="tfZsshV87r6EDiGM7KeE-9" value="校验通过" style="rhombus;whiteSpace=wrap;html=1;" vertex="1" parent="1">
          <mxGeometry x="487" y="330" width="114" height="50" as="geometry" />
        </mxCell>
        <mxCell id="tfZsshV87r6EDiGM7KeE-10" style="edgeStyle=orthogonalEdgeStyle;rounded=0;orthogonalLoop=1;jettySize=auto;html=1;exitX=0.5;exitY=1;exitDx=0;exitDy=0;entryX=0.5;entryY=0;entryDx=0;entryDy=0;" edge="1" parent="1" source="tfZsshV87r6EDiGM7KeE-11" target="tfZsshV87r6EDiGM7KeE-9">
          <mxGeometry relative="1" as="geometry" />
        </mxCell>
        <mxCell id="tfZsshV87r6EDiGM7KeE-11" value="校验请求头中的Access-Token" style="rounded=0;whiteSpace=wrap;html=1;" vertex="1" parent="1">
          <mxGeometry x="484" y="220" width="120" height="60" as="geometry" />
        </mxCell>
        <mxCell id="tfZsshV87r6EDiGM7KeE-21" style="edgeStyle=orthogonalEdgeStyle;rounded=0;orthogonalLoop=1;jettySize=auto;html=1;exitX=0;exitY=0.5;exitDx=0;exitDy=0;entryX=0.5;entryY=0;entryDx=0;entryDy=0;" edge="1" parent="1" source="tfZsshV87r6EDiGM7KeE-13" target="tfZsshV87r6EDiGM7KeE-20">
          <mxGeometry relative="1" as="geometry" />
        </mxCell>
        <mxCell id="tfZsshV87r6EDiGM7KeE-13" value="错误的登录态" style="rounded=0;whiteSpace=wrap;html=1;" vertex="1" parent="1">
          <mxGeometry x="224" y="325" width="120" height="60" as="geometry" />
        </mxCell>
        <mxCell id="tfZsshV87r6EDiGM7KeE-14" style="edgeStyle=orthogonalEdgeStyle;rounded=0;orthogonalLoop=1;jettySize=auto;html=1;exitX=0.5;exitY=1;exitDx=0;exitDy=0;" edge="1" parent="1" source="tfZsshV87r6EDiGM7KeE-15" target="tfZsshV87r6EDiGM7KeE-16">
          <mxGeometry relative="1" as="geometry" />
        </mxCell>
        <mxCell id="tfZsshV87r6EDiGM7KeE-15" value="正常请求" style="rounded=0;whiteSpace=wrap;html=1;" vertex="1" parent="1">
          <mxGeometry x="224" y="440" width="120" height="60" as="geometry" />
        </mxCell>
        <mxCell id="tfZsshV87r6EDiGM7KeE-16" value="结束" style="rounded=1;whiteSpace=wrap;html=1;" vertex="1" parent="1">
          <mxGeometry x="224" y="540" width="120" height="60" as="geometry" />
        </mxCell>
        <mxCell id="tfZsshV87r6EDiGM7KeE-17" value="" style="endArrow=none;dashed=1;html=1;dashPattern=1 3;strokeWidth=2;rounded=0;" edge="1" parent="1">
          <mxGeometry width="50" height="50" relative="1" as="geometry">
            <mxPoint x="414" y="590" as="sourcePoint" />
            <mxPoint x="414" y="70" as="targetPoint" />
          </mxGeometry>
        </mxCell>
        <mxCell id="tfZsshV87r6EDiGM7KeE-18" value="前端" style="text;html=1;align=center;verticalAlign=middle;resizable=0;points=[];autosize=1;strokeColor=none;fillColor=none;" vertex="1" parent="1">
          <mxGeometry x="259" y="80" width="50" height="30" as="geometry" />
        </mxCell>
        <mxCell id="tfZsshV87r6EDiGM7KeE-19" value="后端" style="text;html=1;align=center;verticalAlign=middle;resizable=0;points=[];autosize=1;strokeColor=none;fillColor=none;" vertex="1" parent="1">
          <mxGeometry x="519" y="80" width="50" height="30" as="geometry" />
        </mxCell>
        <mxCell id="tfZsshV87r6EDiGM7KeE-22" style="edgeStyle=orthogonalEdgeStyle;rounded=0;orthogonalLoop=1;jettySize=auto;html=1;exitX=0.5;exitY=1;exitDx=0;exitDy=0;entryX=0;entryY=0.5;entryDx=0;entryDy=0;" edge="1" parent="1" source="tfZsshV87r6EDiGM7KeE-20" target="tfZsshV87r6EDiGM7KeE-16">
          <mxGeometry relative="1" as="geometry" />
        </mxCell>
        <mxCell id="tfZsshV87r6EDiGM7KeE-20" value="路由重定向到登录页面" style="rounded=0;whiteSpace=wrap;html=1;" vertex="1" parent="1">
          <mxGeometry x="60" y="440" width="120" height="60" as="geometry" />
        </mxCell>
      </root>
    </mxGraphModel>
  </diagram>
</mxfile>
